<?xml version="1.0" encoding="UTF-8" standalone="no"?>
<!-- Created with Inkscape (http://www.inkscape.org/) -->

<svg
   width="156.207mm"
   height="118.449mm"
   viewBox="0 0 156.20699 118.449"
   version="1.1"
   id="svg5"
   inkscape:version="1.2 (dc2aedaf03, 2022-05-15)"
   sodipodi:docname="ads10-pv25-batt25.svg"
   inkscape:export-filename="ads10-pv25-batt25.png"
   inkscape:export-xdpi="96"
   inkscape:export-ydpi="96"
   xmlns:inkscape="http://www.inkscape.org/namespaces/inkscape"
   xmlns:sodipodi="http://sodipodi.sourceforge.net/DTD/sodipodi-0.dtd"
   xmlns="http://www.w3.org/2000/svg"
   xmlns:svg="http://www.w3.org/2000/svg">
  <sodipodi:namedview
     id="namedview7"
     pagecolor="#ffffff"
     bordercolor="#999999"
     borderopacity="1"
     inkscape:showpageshadow="0"
     inkscape:pageopacity="1"
     inkscape:pagecheckerboard="0"
     inkscape:deskcolor="#d1d1d1"
     inkscape:document-units="mm"
     showgrid="false"
     inkscape:zoom="1.3715585"
     inkscape:cx="106.44825"
     inkscape:cy="140.71584"
     inkscape:window-width="2560"
     inkscape:window-height="1369"
     inkscape:window-x="2552"
     inkscape:window-y="-8"
     inkscape:window-maximized="1"
     inkscape:current-layer="g4680" />
  <defs
     id="defs2">
    <inkscape:path-effect
       effect="bspline"
       id="path-effect2362"
       is_visible="true"
       lpeversion="1"
       weight="33.333333"
       steps="2"
       helper_size="0"
       apply_no_weight="true"
       apply_with_weight="true"
       only_selected="false" />
    <inkscape:path-effect
       effect="bspline"
       id="path-effect2176"
       is_visible="true"
       lpeversion="1"
       weight="33.333333"
       steps="2"
       helper_size="0"
       apply_no_weight="true"
       apply_with_weight="true"
       only_selected="false" />
    <inkscape:path-effect
       effect="bspline"
       id="path-effect2176-5"
       is_visible="true"
       lpeversion="1"
       weight="33.333333"
       steps="2"
       helper_size="0"
       apply_no_weight="true"
       apply_with_weight="true"
       only_selected="false" />
    <inkscape:path-effect
       effect="bspline"
       id="path-effect2176-0-2"
       is_visible="true"
       lpeversion="1"
       weight="33.333333"
       steps="2"
       helper_size="0"
       apply_no_weight="true"
       apply_with_weight="true"
       only_selected="false" />
    <inkscape:path-effect
       effect="bspline"
       id="path-effect2176-5-8"
       is_visible="true"
       lpeversion="1"
       weight="33.333333"
       steps="2"
       helper_size="0"
       apply_no_weight="true"
       apply_with_weight="true"
       only_selected="false" />
    <inkscape:path-effect
       effect="bspline"
       id="path-effect2176-7"
       is_visible="true"
       lpeversion="1"
       weight="33.333333"
       steps="2"
       helper_size="0"
       apply_no_weight="true"
       apply_with_weight="true"
       only_selected="false" />
    <inkscape:path-effect
       effect="bspline"
       id="path-effect2362-7"
       is_visible="true"
       lpeversion="1"
       weight="33.333333"
       steps="2"
       helper_size="0"
       apply_no_weight="true"
       apply_with_weight="true"
       only_selected="false" />
    <inkscape:path-effect
       effect="bspline"
       id="path-effect2362-9"
       is_visible="true"
       lpeversion="1"
       weight="33.333333"
       steps="2"
       helper_size="0"
       apply_no_weight="true"
       apply_with_weight="true"
       only_selected="false" />
    <inkscape:path-effect
       effect="bspline"
       id="path-effect2362-4"
       is_visible="true"
       lpeversion="1"
       weight="33.333333"
       steps="2"
       helper_size="0"
       apply_no_weight="true"
       apply_with_weight="true"
       only_selected="false" />
    <rect
       x="-1563.0021"
       y="523.94464"
       width="60.935219"
       height="20.826384"
       id="rect40843-7" />
    <rect
       x="-1563.0021"
       y="523.94464"
       width="60.935219"
       height="20.826384"
       id="rect40843-7-1" />
  </defs>
  <g
     inkscape:label="Layer 1"
     inkscape:groupmode="layer"
     id="layer1"
     transform="translate(-19.212606,-25.54103)">
    <text
       xml:space="preserve"
       style="font-style:normal;font-variant:normal;font-weight:normal;font-stretch:normal;font-size:9.87777px;font-family:'Times New Roman';-inkscape-font-specification:'Times New Roman, Normal';font-variant-ligatures:normal;font-variant-caps:normal;font-variant-numeric:normal;font-variant-east-asian:normal;opacity:0.79;fill:#000000;fill-opacity:1;fill-rule:evenodd;stroke:#000000;stroke-width:0.4;stroke-linecap:round;stroke-linejoin:round;stroke-dasharray:none;stroke-opacity:1"
       x="98.303513"
       y="94.874275"
       id="text4169"><tspan
         sodipodi:role="line"
         id="tspan4167"
         style="stroke-width:0.4"
         x="98.303513"
         y="94.874275"></tspan></text>
    <g
       id="g4680"
       transform="rotate(-90.231366,106.90767,92.567861)">
      <rect
         style="opacity:0.83;fill:#ffffff;fill-opacity:1;fill-rule:evenodd;stroke:#000000;stroke-width:0.3;stroke-dasharray:none;stroke-opacity:1"
         id="rect5784"
         width="156.207"
         height="118.449"
         x="4.4403396"
         y="-174.30743"
         transform="rotate(90.231366)" />
      <path
         d="m 100.1194,24.766935 c 0.33206,-1.364392 1.91709,-2.605865 3.32896,-2.607348 1.11695,-0.0011 2.3652,0.619013 3.08999,1.535256 0.55383,0.70012 0.67815,1.108992 0.7261,2.388174 0.0574,1.528011 0.0558,1.531688 -0.13826,0.368065 -0.35965,-2.154381 -1.23054,-2.793705 -3.72739,-2.736247 -1.73978,0.04005 -2.5131,0.532886 -3.08177,1.964115 -0.30383,0.764655 -0.404177,0.876624 -0.39616,0.442032 0.0045,-0.320112 0.09536,-0.929435 0.19861,-1.354047 z m 0.052,19.382941 c 0.33982,-0.203548 4.0438,-0.211698 4.25361,-0.0093 0.28444,0.274329 1.89634,0.120437 2.41316,-0.23039 0.51761,-0.351371 0.53474,-0.340225 0.5357,0.348645 l 10e-4,0.711614 -3.35947,0.0035 c -2.94543,0.0031 -3.38964,0.05377 -3.60434,0.411195 -0.22118,0.368194 -0.24566,0.370064 -0.25275,0.0193 -0.003,-0.213599 -0.0697,-0.54341 -0.14515,-0.732917 -0.07543,-0.189506 -0.003,-0.424236 0.15821,-0.521626 z m 0.11868,-16.908905 c 0.0699,0.167975 0.0614,0.368786 -0.0184,0.44623 -0.0799,0.07746 -0.13707,-0.06 -0.12698,-0.305424 0.0111,-0.271216 0.0682,-0.326441 0.14527,-0.140803 z m 0.0111,1.238615 c 0.0931,-0.478296 0.21082,-0.535049 0.89032,-0.429184 0.96061,0.149662 1.26217,-0.01516 1.40583,-0.768201 0.0611,-0.320171 0.12361,0.203573 0.13904,1.163881 0.0206,1.288217 -0.0365,1.639255 -0.2181,1.338858 -0.176,-0.291246 -0.55113,-0.406831 -1.31773,-0.406025 -0.58944,6.18e-4 -1.05705,-0.07748 -1.03915,-0.173513 0.0178,-0.09606 0.0809,-0.422668 0.13982,-0.725816 z m -0.009,3.635745 c 0.15143,0.361557 3.27195,0.397785 3.95029,0.04587 0.41265,-0.214095 0.46556,-0.161341 0.46645,0.465122 10e-4,0.795206 0.057,0.779645 -2.56618,0.714554 -1.4929,-0.03705 -1.73964,0.01459 -1.83786,0.384414 -0.0624,0.234962 -0.11816,-0.09661 -0.12403,-0.736814 -0.004,-0.64021 0.0444,-1.03312 0.11134,-0.873139 z m 0.007,4.888904 c 0.15037,0.358857 3.93498,0.410867 3.93446,0.05409 -1.7e-4,-0.128045 0.10814,-0.23292 0.2405,-0.233058 0.13248,-1.4e-4 0.24125,0.314033 0.2418,0.698162 l 9.9e-4,0.698416 -2.14971,0.0023 c -1.84484,0.002 -2.16521,0.06005 -2.25924,0.409781 -0.0602,0.224139 -0.1144,-0.116279 -0.12004,-0.75649 -0.004,-0.640209 0.0444,-1.03312 0.11134,-0.873137 z m 0.0961,3.975053 c 0.38143,-0.633845 1.77449,-0.973597 2.73725,-0.667578 0.94941,0.301776 1.67897,1.508038 1.52175,2.516039 -0.091,0.582973 -0.10147,0.57369 -0.13587,-0.118845 -0.0543,-1.097193 -0.88102,-1.546097 -2.59167,-1.407144 -0.7888,0.06408 -1.4322,0.24479 -1.55814,0.437643 -0.18099,0.27721 -0.214,0.273977 -0.21135,-0.02072 0.001,-0.192065 0.1087,-0.524797 0.23794,-0.739403 z m 3.57421,-6.248759 c 0.25386,-2.65e-4 0.51606,-0.131502 0.58263,-0.291618 0.0753,-0.181405 0.12844,-0.144769 0.14057,0.09722 0.034,0.675865 -0.25639,1.125135 -0.72763,1.125629 -0.29532,3.11e-4 -0.45609,-0.163494 -0.45653,-0.465132 -4.1e-4,-0.303659 0.15997,-0.465778 0.46092,-0.466093 z m 1.3039,-5.821503 c 0.18083,-1.89e-4 0.63587,-0.234453 1.01121,-0.520587 0.37537,-0.286133 0.59595,-0.384526 0.49022,-0.218651 -0.11577,0.181833 -0.0243,0.480481 0.23051,0.75209 0.413,0.440074 0.39406,0.450527 -0.81862,0.451799 -0.68278,7.18e-4 -1.24156,-0.103455 -1.24173,-0.2315 -1.9e-4,-0.128044 0.14755,-0.232962 0.32841,-0.233151 z m 1.42865,8.188697 c 0.34827,0.04745 0.56968,0.26098 0.61962,0.597556 0.0634,0.426544 -0.0371,0.523849 -0.54109,0.524379 -0.50396,5.29e-4 -0.61894,-0.110356 -0.61964,-0.597554 -6.7e-4,-0.487202 0.0997,-0.584505 0.54111,-0.524381 z m 4.40722,-5.75037 c 0.49911,-2.053862 1.43175,-3.687807 2.93831,-5.147811 2.72466,-2.640481 6.72207,-3.72673 10.17115,-2.763888 2.89375,0.807817 4.94044,2.22716 6.41421,4.448101 1.41506,2.132489 1.92971,4.474353 1.70095,6.697281 -0.46726,4.539981 -4.03544,8.583856 -9.36714,9.334758 -1.11644,0.157227 -1.14436,0.181216 -1.17415,1.007683 l -0.0304,0.846623 -0.15006,-0.80882 c -0.13778,-0.743155 -0.23658,-0.822953 -1.21586,-0.98295 -1.46999,-0.240175 -3.43422,-0.875631 -3.89189,-1.259092 -0.20937,-0.175389 -0.49764,-0.318774 -0.64066,-0.318623 -0.46518,4.89e-4 -3.15468,-2.803747 -3.75639,-3.916658 -0.62711,-1.159915 -1.38815,-4.013521 -1.35667,-5.086935 0.0111,-0.358864 0.17201,-1.281214 0.35869,-2.049669 z m 0.60908,4.19594 c 0.99395,5.158873 6.29422,8.614786 11.69209,7.623541 3.02209,-0.55496 5.00485,-1.811361 6.69002,-4.239222 3.36729,-4.851306 1.39131,-11.615809 -4.16841,-14.270055 -1.52447,-0.727783 -1.74757,-0.768033 -4.25775,-0.768159 -2.50224,-9.8e-5 -2.74229,0.04269 -4.33362,0.772923 -3.43595,1.57671 -5.74974,5.002733 -5.86141,8.678934 -0.014,0.45666 0.0937,1.447574 0.23908,2.202038 z m 5.6815,0.591434 c 0.35384,-1.652282 2.4389,-3.283307 4.19964,-3.285155 1.59897,-0.0016 2.8355,-1.252598 2.84476,-2.877852 0.008,-0.96856 -0.10033,-1.224955 -0.74511,-1.805843 -0.41331,-0.372357 -1.00986,-0.739407 -1.32561,-0.815666 -0.43934,-0.106093 -0.57437,-0.296724 -0.57509,-0.81183 -10e-4,-0.824668 0.39942,-0.865736 1.84856,-0.189526 3.15631,1.472825 3.13606,5.942788 -0.0338,7.430486 -0.54607,0.256295 -1.28805,0.466302 -1.64886,0.46668 -1.57238,0.0016 -3.28567,1.541537 -3.28075,2.948695 0.003,0.762948 0.91987,1.910949 1.91955,2.402598 0.74201,0.364909 0.97359,0.615945 0.9742,1.055991 10e-4,0.727907 -0.60768,0.762215 -1.93569,0.109124 -1.64981,-0.811366 -2.62719,-2.82882 -2.24193,-4.627684 z"
         style="fill:#101010;stroke:#000000;stroke-width:0.953074;stroke-dasharray:none;stroke-opacity:0.494118"
         id="path919"
         sodipodi:nodetypes="cssscssscccsscssccccssssscssccsscssssscsssssscsccsssssssscssccsssssscsssscssscsssssccsssssccccssscscccscsssssscssscc" />
      <path
         style="opacity:0.79;fill:#000000;fill-opacity:0.819608;fill-rule:evenodd;stroke-width:0.220084"
         id="path1040"
         sodipodi:type="arc"
         sodipodi:cx="121.7552"
         sodipodi:cy="50.153206"
         sodipodi:rx="4.5508618"
         sodipodi:ry="4.3994675"
         sodipodi:start="0.46461072"
         sodipodi:end="0.43267107"
         sodipodi:open="true"
         sodipodi:arc-type="arc"
         d="m 125.82366,52.124496 a 4.5508618,4.3994675 0 0 1 -6.07503,1.977431 4.5508618,4.3994675 0 0 1 -2.09392,-5.856952 4.5508618,4.3994675 0 0 1 6.04159,-2.070965 4.5508618,4.3994675 0 0 1 2.1904,5.82388"
         transform="matrix(0.99999999,1.3433955e-4,1.3896246e-4,0.99999999,0,0)" />
      <path
         style="opacity:0.79;fill:#000000;fill-opacity:0.819608;fill-rule:evenodd;stroke-width:0.220084"
         id="path1040-2"
         sodipodi:type="arc"
         sodipodi:cx="100.40451"
         sodipodi:cy="71.820786"
         sodipodi:rx="4.5508618"
         sodipodi:ry="4.3994675"
         sodipodi:start="0.46461072"
         sodipodi:end="0.43267107"
         sodipodi:open="true"
         sodipodi:arc-type="arc"
         d="m 104.47296,73.792076 a 4.5508618,4.3994675 0 0 1 -6.075025,1.977431 4.5508618,4.3994675 0 0 1 -2.093921,-5.856952 4.5508618,4.3994675 0 0 1 6.041586,-2.070965 4.5508618,4.3994675 0 0 1 2.19041,5.82388"
         inkscape:transform-center-x="-9.6498485"
         inkscape:transform-center-y="31.834233"
         transform="matrix(0.99999999,1.3433955e-4,1.3896246e-4,0.99999999,0,0)" />
      <path
         style="opacity:0.79;fill:#000000;fill-opacity:0.819608;fill-rule:evenodd;stroke-width:0.220084"
         id="path1040-2-9"
         sodipodi:type="arc"
         sodipodi:cx="121.7552"
         sodipodi:cy="71.820786"
         sodipodi:rx="4.5508618"
         sodipodi:ry="4.3994675"
         sodipodi:start="0.46461072"
         sodipodi:end="0.43267107"
         sodipodi:open="true"
         sodipodi:arc-type="arc"
         d="m 125.82366,73.792076 a 4.5508618,4.3994675 0 0 1 -6.07503,1.977431 4.5508618,4.3994675 0 0 1 -2.09392,-5.856952 4.5508618,4.3994675 0 0 1 6.04159,-2.070965 4.5508618,4.3994675 0 0 1 2.1904,5.82388"
         inkscape:transform-center-x="-9.6498486"
         inkscape:transform-center-y="31.834258"
         transform="matrix(0.99999999,1.3433955e-4,1.3896246e-4,0.99999999,0,0)" />
      <path
         style="opacity:0.79;fill:#000000;fill-opacity:0.819608;fill-rule:evenodd;stroke-width:0.220084"
         id="path1040-2-0"
         sodipodi:type="arc"
         sodipodi:cx="143.10593"
         sodipodi:cy="71.820786"
         sodipodi:rx="4.5508618"
         sodipodi:ry="4.3994675"
         sodipodi:start="0.46461072"
         sodipodi:end="0.43267107"
         sodipodi:open="true"
         sodipodi:arc-type="arc"
         d="m 147.17438,73.792076 a 4.5508618,4.3994675 0 0 1 -6.07503,1.977431 4.5508618,4.3994675 0 0 1 -2.09392,-5.856952 4.5508618,4.3994675 0 0 1 6.04159,-2.070965 4.5508618,4.3994675 0 0 1 2.1904,5.82388"
         inkscape:transform-center-x="-9.6498486"
         inkscape:transform-center-y="31.834249"
         transform="matrix(0.99999999,1.3433955e-4,1.3896246e-4,0.99999999,0,0)" />
      <path
         style="opacity:0.79;fill:#000000;fill-opacity:0.819608;fill-rule:evenodd;stroke-width:0.220084"
         id="path1040-2-9-2"
         sodipodi:type="arc"
         sodipodi:cx="100.40451"
         sodipodi:cy="94.192894"
         sodipodi:rx="4.5508618"
         sodipodi:ry="4.3994675"
         sodipodi:start="0.46461072"
         sodipodi:end="0.43267107"
         sodipodi:open="true"
         sodipodi:arc-type="arc"
         d="m 104.47296,96.164185 a 4.5508618,4.3994675 0 0 1 -6.075025,1.977431 4.5508618,4.3994675 0 0 1 -2.093921,-5.856953 4.5508618,4.3994675 0 0 1 6.041586,-2.070964 4.5508618,4.3994675 0 0 1 2.19041,5.823879"
         inkscape:transform-center-x="-9.6498374"
         inkscape:transform-center-y="31.834233"
         transform="matrix(0.99999999,1.3433955e-4,1.3896246e-4,0.99999999,0,0)" />
      <path
         style="opacity:0.79;fill:#000000;fill-opacity:0.819608;fill-rule:evenodd;stroke-width:0.220084"
         id="path1040-2-9-6"
         sodipodi:type="arc"
         sodipodi:cx="79.053764"
         sodipodi:cy="94.975296"
         sodipodi:rx="4.5508618"
         sodipodi:ry="4.3994675"
         sodipodi:start="0.46461072"
         sodipodi:end="0.43267107"
         sodipodi:open="true"
         sodipodi:arc-type="arc"
         d="m 83.122217,96.946587 a 4.5508618,4.3994675 0 0 1 -6.075028,1.977431 4.5508618,4.3994675 0 0 1 -2.093922,-5.856953 4.5508618,4.3994675 0 0 1 6.04159,-2.070964 4.5508618,4.3994675 0 0 1 2.190403,5.82388"
         inkscape:transform-center-x="-9.6498328"
         inkscape:transform-center-y="31.834257"
         transform="matrix(0.99999999,1.3433955e-4,1.3896246e-4,0.99999999,0,0)" />
      <path
         style="opacity:0.79;fill:#a4ff00;fill-opacity:0.819608;fill-rule:evenodd;stroke:#000000;stroke-width:1.75848;stroke-dasharray:none;stroke-opacity:0.494118"
         d="M 82.150437,90.62859 C 87.182263,85.536353 92.214082,80.444123 97.245908,75.351886"
         id="path2174-3"
         inkscape:path-effect="#path-effect2176-7"
         inkscape:original-d="m 82.150437,90.62859 c 5.032065,-5.092 10.063878,-10.184237 15.095471,-15.276704" />
      <path
         style="opacity:0.79;fill:#000000;fill-opacity:0.819608;fill-rule:evenodd;stroke-width:0.220084"
         id="path1040-2-9-4"
         sodipodi:type="arc"
         sodipodi:cx="121.7552"
         sodipodi:cy="94.192894"
         sodipodi:rx="4.5508618"
         sodipodi:ry="4.3994675"
         sodipodi:start="0.46461072"
         sodipodi:end="0.43267107"
         sodipodi:open="true"
         sodipodi:arc-type="arc"
         d="m 125.82366,96.164185 a 4.5508618,4.3994675 0 0 1 -6.07503,1.977431 4.5508618,4.3994675 0 0 1 -2.09392,-5.856953 4.5508618,4.3994675 0 0 1 6.04159,-2.070964 4.5508618,4.3994675 0 0 1 2.1904,5.823879"
         inkscape:transform-center-x="-9.6498374"
         inkscape:transform-center-y="31.834258"
         transform="matrix(0.99999999,1.3433955e-4,1.3896246e-4,0.99999999,0,0)" />
      <path
         style="opacity:0.79;fill:#000000;fill-opacity:0.819608;fill-rule:evenodd;stroke-width:0.220084"
         id="path1040-2-9-63"
         sodipodi:type="arc"
         sodipodi:cx="101.28725"
         sodipodi:cy="116.56497"
         sodipodi:rx="4.5508618"
         sodipodi:ry="4.3994675"
         sodipodi:start="0.46461072"
         sodipodi:end="0.43267107"
         sodipodi:open="true"
         sodipodi:arc-type="arc"
         d="m 105.3557,118.53626 a 4.5508618,4.3994675 0 0 1 -6.075029,1.97743 4.5508618,4.3994675 0 0 1 -2.093921,-5.85695 4.5508618,4.3994675 0 0 1 6.04159,-2.07096 4.5508618,4.3994675 0 0 1 2.1904,5.82388"
         inkscape:transform-center-x="-9.6498311"
         inkscape:transform-center-y="31.834265"
         transform="matrix(0.99999999,1.3433955e-4,1.3896246e-4,0.99999999,0,0)" />
      <path
         style="opacity:0.79;fill:#000000;fill-opacity:0.819608;fill-rule:evenodd;stroke-width:0.220084"
         id="path1040-2-9-5"
         sodipodi:type="arc"
         sodipodi:cx="121.7552"
         sodipodi:cy="116.56497"
         sodipodi:rx="4.5508618"
         sodipodi:ry="4.3994675"
         sodipodi:start="0.46461072"
         sodipodi:end="0.43267107"
         sodipodi:open="true"
         sodipodi:arc-type="arc"
         d="m 125.82366,118.53626 a 4.5508618,4.3994675 0 0 1 -6.07503,1.97743 4.5508618,4.3994675 0 0 1 -2.09392,-5.85695 4.5508618,4.3994675 0 0 1 6.04159,-2.07096 4.5508618,4.3994675 0 0 1 2.1904,5.82388"
         inkscape:transform-center-x="-9.6498309"
         inkscape:transform-center-y="31.834258"
         transform="matrix(0.99999999,1.3433955e-4,1.3896246e-4,0.99999999,0,0)" />
      <path
         style="opacity:0.79;fill:#000000;fill-opacity:0.819608;fill-rule:evenodd;stroke-width:0.220084"
         id="path1040-2-9-50"
         sodipodi:type="arc"
         sodipodi:cx="121.7552"
         sodipodi:cy="138.9371"
         sodipodi:rx="4.5508618"
         sodipodi:ry="4.3994675"
         sodipodi:start="0.46461072"
         sodipodi:end="0.43267107"
         sodipodi:open="true"
         sodipodi:arc-type="arc"
         d="m 125.82366,140.90839 a 4.5508618,4.3994675 0 0 1 -6.07503,1.97743 4.5508618,4.3994675 0 0 1 -2.09392,-5.85695 4.5508618,4.3994675 0 0 1 6.04159,-2.07096 4.5508618,4.3994675 0 0 1 2.1904,5.82388"
         inkscape:transform-center-x="-9.6498381"
         inkscape:transform-center-y="31.834258"
         transform="matrix(0.99999999,1.3433955e-4,1.3896246e-4,0.99999999,0,0)" />
      <path
         style="opacity:0.79;fill:#a4ff00;fill-opacity:0.819608;fill-rule:evenodd;stroke:#000000;stroke-width:1.75848;stroke-dasharray:none;stroke-opacity:0.494118"
         d="m 103.44804,68.555614 c 5.03183,-5.092253 10.06364,-10.184481 15.09545,-15.276706"
         id="path2174"
         inkscape:path-effect="#path-effect2176"
         inkscape:original-d="m 103.44804,68.555614 c 5.03209,-5.092 10.06389,-10.184238 15.09545,-15.276706" />
      <path
         style="opacity:0.79;fill:#a4ff00;fill-opacity:0.819608;fill-rule:evenodd;stroke:#000000;stroke-width:1.75848;stroke-dasharray:none;stroke-opacity:0.494118"
         d="M 139.85839,68.560506 C 134.82515,63.466914 129.79191,58.373324 124.75868,53.279742"
         id="path2174-1"
         inkscape:path-effect="#path-effect2176-5"
         inkscape:original-d="M 139.85839,68.560506 C 134.82491,63.467151 129.79167,58.373561 124.75868,53.279742" />
      <path
         style="opacity:0.79;fill:#a4ff00;fill-opacity:0.819608;fill-rule:evenodd;stroke:#000000;stroke-width:1.75848;stroke-dasharray:none;stroke-opacity:0.494118"
         d="m 103.54672,112.7073 c 5.03183,-5.09224 10.06364,-10.18446 15.09546,-15.276697"
         id="path2174-8-7"
         inkscape:path-effect="#path-effect2176-0-2"
         inkscape:original-d="m 103.54672,112.7073 c 5.03207,-5.092 10.06388,-10.18422 15.09546,-15.276697" />
      <path
         style="opacity:0.79;fill:#a4ff00;fill-opacity:0.819608;fill-rule:evenodd;stroke:#000000;stroke-width:1.75848;stroke-dasharray:none;stroke-opacity:0.494118"
         d="M 118.64123,90.633494 C 113.608,85.539911 108.57476,80.446316 103.54153,75.352733"
         id="path2174-1-3"
         inkscape:path-effect="#path-effect2176-5-8"
         inkscape:original-d="M 118.64123,90.633494 C 113.60777,85.540138 108.57452,80.446552 103.54153,75.352733" />
      <path
         style="opacity:0.79;fill:#a4ff00;fill-opacity:0.819608;fill-rule:evenodd;stroke:#000000;stroke-width:1.75848;stroke-dasharray:none;stroke-opacity:0.494118"
         d="m 121.76279,54.569032 c 3e-4,4.289779 6e-4,8.579325 9e-4,12.868635"
         id="path2360"
         inkscape:path-effect="#path-effect2362"
         inkscape:original-d="m 121.76279,54.569032 c 4.6e-4,4.289779 4.6e-4,8.579325 9e-4,12.868635"
         sodipodi:nodetypes="cc" />
      <path
         style="opacity:0.79;fill:#a4ff00;fill-opacity:0.819608;fill-rule:evenodd;stroke:#000000;stroke-width:1.75848;stroke-dasharray:none;stroke-opacity:0.494118"
         d="m 100.3939,76.586002 c 3e-4,4.289776 6e-4,8.579323 9e-4,12.868633"
         id="path2360-4"
         inkscape:path-effect="#path-effect2362-7"
         inkscape:original-d="m 100.3939,76.586002 c 4.5e-4,4.289776 4.6e-4,8.579323 9e-4,12.868633" />
      <path
         style="opacity:0.79;fill:#a4ff00;fill-opacity:0.819608;fill-rule:evenodd;stroke:#000000;stroke-width:1.75848;stroke-dasharray:none;stroke-opacity:0.494118"
         d="m 121.76896,98.960983 c 3e-4,4.289767 6.1e-4,8.579317 9.1e-4,12.868637"
         id="path2360-0"
         inkscape:path-effect="#path-effect2362-9"
         inkscape:original-d="m 121.76896,98.960983 c 4.7e-4,4.289767 4.8e-4,8.579317 9.1e-4,12.868637" />
      <path
         style="opacity:0.79;fill:#a4ff00;fill-opacity:0.819608;fill-rule:evenodd;stroke:#000000;stroke-width:1.75848;stroke-dasharray:none;stroke-opacity:0.494118"
         d="m 121.77202,120.98082 c 3e-4,4.28978 6.1e-4,8.57932 9.1e-4,12.86863"
         id="path2360-1"
         inkscape:path-effect="#path-effect2362-4"
         inkscape:original-d="m 121.77202,120.98082 c 4.5e-4,4.28978 4.7e-4,8.57932 9.1e-4,12.86863" />
      <text
         xml:space="preserve"
         style="font-style:normal;font-variant:normal;font-weight:normal;font-stretch:normal;font-size:8.83967px;font-family:'Times New Roman';-inkscape-font-specification:'Times New Roman, Normal';font-variant-ligatures:normal;font-variant-caps:normal;font-variant-numeric:normal;font-variant-east-asian:normal;opacity:0.79;fill:#000000;fill-opacity:1;fill-rule:evenodd;stroke:#000000;stroke-width:0.263543;stroke-linecap:round;stroke-linejoin:round;stroke-dasharray:none;stroke-opacity:1"
         x="117.10222"
         y="-29.854202"
         id="text4159"
         transform="matrix(0.48011766,0.88397212,-0.88684864,0.44999495,0,0)"><tspan
           sodipodi:role="line"
           id="tspan4157"
           style="font-style:normal;font-variant:normal;font-weight:normal;font-stretch:normal;font-size:8.83967px;font-family:'Times New Roman';-inkscape-font-specification:'Times New Roman, Normal';font-variant-ligatures:normal;font-variant-caps:normal;font-variant-numeric:normal;font-variant-east-asian:normal;stroke-width:0.263543"
           x="117.10222"
           y="-29.854202">4</tspan></text>
      <text
         xml:space="preserve"
         style="font-style:normal;font-variant:normal;font-weight:normal;font-stretch:normal;font-size:8.83967px;font-family:'Times New Roman';-inkscape-font-specification:'Times New Roman, Normal';font-variant-ligatures:normal;font-variant-caps:normal;font-variant-numeric:normal;font-variant-east-asian:normal;opacity:0.83;fill:#000000;fill-opacity:1;fill-rule:evenodd;stroke:#000000;stroke-width:0.357963;stroke-linecap:round;stroke-linejoin:round;stroke-dasharray:none;stroke-opacity:1"
         x="99.469887"
         y="-88.710297"
         id="text3202"
         transform="matrix(0.47286537,0.87061952,-0.90045015,0.45689648,0,0)"><tspan
           sodipodi:role="line"
           id="tspan3200"
           style="font-style:normal;font-variant:normal;font-weight:normal;font-stretch:normal;font-size:8.83967px;font-family:'Times New Roman';-inkscape-font-specification:'Times New Roman, Normal';font-variant-ligatures:normal;font-variant-caps:normal;font-variant-numeric:normal;font-variant-east-asian:normal;fill:#000000;fill-opacity:1;stroke:#000000;stroke-width:0.357963;stroke-linecap:round;stroke-linejoin:round;stroke-dasharray:none;stroke-opacity:1"
           x="99.469887"
           y="-88.710297">1</tspan></text>
      <text
         xml:space="preserve"
         style="font-style:normal;font-variant:normal;font-weight:normal;font-stretch:normal;font-size:8.83967px;font-family:'Times New Roman';-inkscape-font-specification:'Times New Roman, Normal';font-variant-ligatures:normal;font-variant-caps:normal;font-variant-numeric:normal;font-variant-east-asian:normal;opacity:0.79;fill:#000000;fill-opacity:1;fill-rule:evenodd;stroke:#000000;stroke-width:0.357963;stroke-linecap:round;stroke-linejoin:round;stroke-dasharray:none;stroke-opacity:1"
         x="108.70464"
         y="-59.504021"
         id="text3202-9"
         transform="matrix(0.47286537,0.87061952,-0.90045015,0.45689648,0,0)"><tspan
           sodipodi:role="line"
           id="tspan3200-9"
           style="font-style:normal;font-variant:normal;font-weight:normal;font-stretch:normal;font-size:8.83967px;font-family:'Times New Roman';-inkscape-font-specification:'Times New Roman, Normal';font-variant-ligatures:normal;font-variant-caps:normal;font-variant-numeric:normal;font-variant-east-asian:normal;fill:#000000;fill-opacity:1;stroke:#000000;stroke-width:0.357963;stroke-linecap:round;stroke-linejoin:round;stroke-dasharray:none;stroke-opacity:1"
           x="108.70464"
           y="-59.504021">2</tspan></text>
      <text
         xml:space="preserve"
         style="font-style:normal;font-variant:normal;font-weight:normal;font-stretch:normal;font-size:8.83967px;font-family:'Times New Roman';-inkscape-font-specification:'Times New Roman, Normal';font-variant-ligatures:normal;font-variant-caps:normal;font-variant-numeric:normal;font-variant-east-asian:normal;opacity:0.79;fill:#000000;fill-opacity:1;fill-rule:evenodd;stroke:#000000;stroke-width:0.2581;stroke-linecap:round;stroke-linejoin:round;stroke-dasharray:none;stroke-opacity:1"
         x="122.06833"
         y="-75.83799"
         id="text4155"
         transform="matrix(0.4579714,0.84319738,-0.92973424,0.47175549,0,0)"><tspan
           sodipodi:role="line"
           id="tspan4153"
           style="font-style:normal;font-variant:normal;font-weight:normal;font-stretch:normal;font-size:8.83967px;font-family:'Times New Roman';-inkscape-font-specification:'Times New Roman, Normal';font-variant-ligatures:normal;font-variant-caps:normal;font-variant-numeric:normal;font-variant-east-asian:normal;stroke-width:0.2581"
           x="122.06833"
           y="-75.83799">3</tspan></text>
      <text
         xml:space="preserve"
         style="font-style:normal;font-variant:normal;font-weight:normal;font-stretch:normal;font-size:8.83967px;font-family:'Times New Roman';-inkscape-font-specification:'Times New Roman, Normal';font-variant-ligatures:normal;font-variant-caps:normal;font-variant-numeric:normal;font-variant-east-asian:normal;opacity:0.79;fill:#000000;fill-opacity:1;fill-rule:evenodd;stroke:#000000;stroke-width:0.357963;stroke-linecap:round;stroke-linejoin:round;stroke-dasharray:none;stroke-opacity:1"
         x="122.80256"
         y="-96.693237"
         id="text4163"
         transform="matrix(0.47286537,0.87061952,-0.90045015,0.45689648,0,0)"><tspan
           sodipodi:role="line"
           id="tspan4161"
           style="stroke-width:0.357963"
           x="122.80256"
           y="-96.693237">10</tspan><tspan
           sodipodi:role="line"
           style="stroke-width:0.357963"
           x="122.80256"
           y="-85.643646"
           id="tspan4165" /></text>
      <text
         xml:space="preserve"
         style="font-style:normal;font-variant:normal;font-weight:normal;font-stretch:normal;font-size:8.83967px;font-family:'Times New Roman';-inkscape-font-specification:'Times New Roman, Normal';font-variant-ligatures:normal;font-variant-caps:normal;font-variant-numeric:normal;font-variant-east-asian:normal;opacity:0.79;fill:#000000;fill-opacity:1;fill-rule:evenodd;stroke:#000000;stroke-width:0.357963;stroke-linecap:round;stroke-linejoin:round;stroke-dasharray:none;stroke-opacity:1"
         x="126.53354"
         y="-50.131516"
         id="text4173"
         transform="matrix(0.47286537,0.87061952,-0.90045015,0.45689648,0,0)"><tspan
           sodipodi:role="line"
           id="tspan4171"
           style="stroke-width:0.357963"
           x="126.53354"
           y="-50.131516">5</tspan></text>
      <text
         xml:space="preserve"
         style="font-style:normal;font-variant:normal;font-weight:normal;font-stretch:normal;font-size:8.83967px;font-family:'Times New Roman';-inkscape-font-specification:'Times New Roman, Normal';font-variant-ligatures:normal;font-variant-caps:normal;font-variant-numeric:normal;font-variant-east-asian:normal;opacity:0.79;fill:#000000;fill-opacity:1;fill-rule:evenodd;stroke:#000000;stroke-width:0.357963;stroke-linecap:round;stroke-linejoin:round;stroke-dasharray:none;stroke-opacity:1"
         x="136.19328"
         y="-69.652397"
         id="text4177"
         transform="matrix(0.47286537,0.87061952,-0.90045015,0.45689648,0,0)"><tspan
           sodipodi:role="line"
           id="tspan4175"
           style="stroke-width:0.357963"
           x="136.19328"
           y="-69.652397">6</tspan></text>
      <text
         xml:space="preserve"
         style="font-style:normal;font-variant:normal;font-weight:normal;font-stretch:normal;font-size:8.83967px;font-family:'Times New Roman';-inkscape-font-specification:'Times New Roman, Normal';font-variant-ligatures:normal;font-variant-caps:normal;font-variant-numeric:normal;font-variant-east-asian:normal;opacity:0.79;fill:#000000;fill-opacity:1;fill-rule:evenodd;stroke:#000000;stroke-width:0.357963;stroke-linecap:round;stroke-linejoin:round;stroke-dasharray:none;stroke-opacity:1"
         x="148.42041"
         y="-38.512028"
         id="text4181"
         transform="matrix(0.47286537,0.87061952,-0.90045015,0.45689648,0,0)"><tspan
           sodipodi:role="line"
           id="tspan4179"
           style="stroke-width:0.357963"
           x="148.42041"
           y="-38.512028">7</tspan></text>
      <text
         xml:space="preserve"
         style="font-style:normal;font-variant:normal;font-weight:normal;font-stretch:normal;font-size:8.83967px;font-family:'Times New Roman';-inkscape-font-specification:'Times New Roman, Normal';font-variant-ligatures:normal;font-variant-caps:normal;font-variant-numeric:normal;font-variant-east-asian:normal;opacity:0.79;fill:#000000;fill-opacity:1;fill-rule:evenodd;stroke:#000000;stroke-width:0.357963;stroke-linecap:round;stroke-linejoin:round;stroke-dasharray:none;stroke-opacity:1"
         x="157.85245"
         y="-57.251022"
         id="text4185"
         transform="matrix(0.47286537,0.87061952,-0.90045015,0.45689648,0,0)"><tspan
           sodipodi:role="line"
           id="tspan4183"
           style="stroke-width:0.357963"
           x="157.85245"
           y="-57.251022">8</tspan></text>
      <text
         xml:space="preserve"
         style="font-style:normal;font-variant:normal;font-weight:normal;font-stretch:normal;font-size:8.83967px;font-family:'Times New Roman';-inkscape-font-specification:'Times New Roman, Normal';font-variant-ligatures:normal;font-variant-caps:normal;font-variant-numeric:normal;font-variant-east-asian:normal;opacity:0.79;fill:#000000;fill-opacity:1;fill-rule:evenodd;stroke:#000000;stroke-width:0.357963;stroke-linecap:round;stroke-linejoin:round;stroke-dasharray:none;stroke-opacity:1"
         x="178.67899"
         y="-47.156212"
         id="text4189"
         transform="matrix(0.47286537,0.87061952,-0.90045015,0.45689648,0,0)"><tspan
           sodipodi:role="line"
           id="tspan4187"
           style="stroke-width:0.357963"
           x="178.67899"
           y="-47.156212">9</tspan></text>
      <ellipse
         style="display:inline;fill:none;fill-opacity:1;stroke:#007bff;stroke-width:3.07587;stroke-linecap:round;stroke-dasharray:none;stroke-dashoffset:0;stroke-opacity:0.580392"
         id="path1-1-9"
         cx="100.33935"
         cy="94.192894"
         rx="6.6273756"
         ry="6.4069014"
         transform="matrix(0.99999999,1.3433955e-4,1.3896246e-4,0.99999999,0,0)" />
      <rect
         style="display:inline;opacity:0.79;mix-blend-mode:darken;fill:#ff3b30;fill-opacity:0.82;stroke:#ff5733;stroke-width:2.98895;stroke-linecap:round;stroke-dasharray:none;stroke-opacity:0.61"
         id="rect1-9"
         width="15.163481"
         height="14.659035"
         x="135.52417"
         y="64.491257"
         transform="matrix(0.99999999,1.3433955e-4,1.3896246e-4,0.99999999,0,0)" />
      <rect
         style="display:inline;opacity:0.79;mix-blend-mode:darken;fill:#ff3b30;fill-opacity:0.82;stroke:#ff5733;stroke-width:2.98895;stroke-linecap:round;stroke-dasharray:none;stroke-opacity:0.61"
         id="rect1-9-6"
         width="15.163482"
         height="14.659036"
         x="114.05548"
         y="86.899353"
         transform="matrix(0.99999999,1.3433955e-4,1.3896246e-4,0.99999999,0,0)" />
      <ellipse
         style="display:inline;fill:none;fill-opacity:1;stroke:#007bff;stroke-width:3.07587;stroke-linecap:round;stroke-dasharray:none;stroke-dashoffset:0;stroke-opacity:0.580392"
         id="path1-1"
         cx="121.7552"
         cy="94.192894"
         rx="6.6273756"
         ry="6.4069014"
         transform="matrix(0.99999999,1.3433955e-4,1.3896246e-4,0.99999999,0,0)" />
    </g>
    <text
       xml:space="preserve"
       transform="matrix(0.34732022,0,0,0.36885724,571.47672,-163.81414)"
       id="text40841-3"
       style="font-style:normal;font-variant:normal;font-weight:normal;font-stretch:normal;font-size:13.3333px;font-family:'Times New Roman';-inkscape-font-specification:'Times New Roman, Normal';font-variant-ligatures:normal;font-variant-caps:normal;font-variant-numeric:normal;font-variant-east-asian:normal;white-space:pre;shape-inside:url(#rect40843-7);display:inline;fill:#c51919;fill-opacity:1;fill-rule:evenodd;stroke:none;stroke-width:0.755906;stroke-miterlimit:5.2;stroke-opacity:1"><tspan
         x="-1563.002"
         y="535.78023"
         id="tspan8674"><tspan
           style="fill:#000000"
           id="tspan8672">Battery</tspan></tspan></text>
    <text
       xml:space="preserve"
       transform="matrix(0.34732022,0,0,0.36885724,571.4505,-158.12825)"
       id="text40841-3-8"
       style="font-style:normal;font-variant:normal;font-weight:normal;font-stretch:normal;font-size:13.3333px;font-family:'Times New Roman';-inkscape-font-specification:'Times New Roman, Normal';font-variant-ligatures:normal;font-variant-caps:normal;font-variant-numeric:normal;font-variant-east-asian:normal;white-space:pre;shape-inside:url(#rect40843-7-1);display:inline;fill:#c51919;fill-opacity:1;fill-rule:evenodd;stroke:none;stroke-width:0.755906;stroke-miterlimit:5.2;stroke-opacity:1"><tspan
         x="-1563.002"
         y="535.78023"
         id="tspan8678"><tspan
           style="fill:#000000"
           id="tspan8676">PV</tspan></tspan></text>
    <rect
       style="display:inline;opacity:0.79;mix-blend-mode:darken;fill:#ff3b30;fill-opacity:0.82;stroke:#ff5733;stroke-width:0.676397;stroke-linecap:round;stroke-dasharray:none;stroke-opacity:0.61"
       id="rect1"
       width="3.3217094"
       height="3.4268949"
       x="23.270519"
       y="36.653938" />
    <ellipse
       style="display:inline;fill:none;fill-opacity:1;stroke:#007bff;stroke-width:0.980776;stroke-linecap:round;stroke-dasharray:none;stroke-dashoffset:0;stroke-opacity:0.580392"
       id="path1-8-0"
       cx="24.849974"
       cy="32.714828"
       rx="2.0642052"
       ry="2.0914137" />
  </g>
</svg>
